<mxfile host="app.diagrams.net" modified="2023-09-12T19:36:37.487Z" agent="Mozilla/5.0 (Windows NT 10.0; Win64; x64) AppleWebKit/537.36 (KHTML, like Gecko) Chrome/117.0.0.0 Safari/537.36" etag="lLU4AfPBfodA9okcfdyO" version="21.7.4" type="device">
  <diagram name="Página-1" id="RaPB_AurbOYFqP_cAzEh">
    <mxGraphModel dx="1257" dy="671" grid="1" gridSize="10" guides="1" tooltips="1" connect="1" arrows="1" fold="1" page="1" pageScale="1" pageWidth="827" pageHeight="1169" math="0" shadow="0">
      <root>
        <mxCell id="0" />
        <mxCell id="1" parent="0" />
        <mxCell id="djS_rhRK-3LacVfo9kvr-1" value="" style="ellipse;html=1;shape=endState;fillColor=#000000;strokeColor=#ff0000;" vertex="1" parent="1">
          <mxGeometry x="360" y="560" width="30" height="30" as="geometry" />
        </mxCell>
        <mxCell id="djS_rhRK-3LacVfo9kvr-2" value="" style="ellipse;html=1;shape=startState;fillColor=#000000;strokeColor=#ff0000;" vertex="1" parent="1">
          <mxGeometry x="140" y="90" width="30" height="30" as="geometry" />
        </mxCell>
        <mxCell id="djS_rhRK-3LacVfo9kvr-3" value="" style="edgeStyle=orthogonalEdgeStyle;html=1;verticalAlign=bottom;endArrow=open;endSize=8;strokeColor=#ff0000;rounded=0;entryX=0.5;entryY=0;entryDx=0;entryDy=0;entryPerimeter=0;" edge="1" source="djS_rhRK-3LacVfo9kvr-2" parent="1" target="djS_rhRK-3LacVfo9kvr-4">
          <mxGeometry relative="1" as="geometry">
            <mxPoint x="140" y="180" as="targetPoint" />
            <Array as="points">
              <mxPoint x="155" y="170" />
              <mxPoint x="156" y="170" />
              <mxPoint x="156" y="180" />
              <mxPoint x="155" y="180" />
            </Array>
          </mxGeometry>
        </mxCell>
        <mxCell id="djS_rhRK-3LacVfo9kvr-6" style="edgeStyle=orthogonalEdgeStyle;rounded=0;orthogonalLoop=1;jettySize=auto;html=1;entryX=0;entryY=0.5;entryDx=0;entryDy=0;" edge="1" parent="1" source="djS_rhRK-3LacVfo9kvr-4" target="djS_rhRK-3LacVfo9kvr-11">
          <mxGeometry relative="1" as="geometry">
            <mxPoint x="277.04999999999995" y="235" as="targetPoint" />
          </mxGeometry>
        </mxCell>
        <mxCell id="djS_rhRK-3LacVfo9kvr-4" value="Leitor 1&lt;br&gt;" style="shape=umlActor;verticalLabelPosition=bottom;verticalAlign=top;html=1;" vertex="1" parent="1">
          <mxGeometry x="140" y="190" width="30" height="60" as="geometry" />
        </mxCell>
        <mxCell id="djS_rhRK-3LacVfo9kvr-15" value="" style="edgeStyle=orthogonalEdgeStyle;rounded=0;orthogonalLoop=1;jettySize=auto;html=1;" edge="1" parent="1" source="djS_rhRK-3LacVfo9kvr-9" target="djS_rhRK-3LacVfo9kvr-14">
          <mxGeometry relative="1" as="geometry" />
        </mxCell>
        <mxCell id="djS_rhRK-3LacVfo9kvr-19" value="" style="edgeStyle=orthogonalEdgeStyle;rounded=0;orthogonalLoop=1;jettySize=auto;html=1;" edge="1" parent="1" source="djS_rhRK-3LacVfo9kvr-9" target="djS_rhRK-3LacVfo9kvr-18">
          <mxGeometry relative="1" as="geometry" />
        </mxCell>
        <mxCell id="djS_rhRK-3LacVfo9kvr-9" value="Disponibilidade" style="html=1;whiteSpace=wrap;aspect=fixed;shape=isoRectangle;" vertex="1" parent="1">
          <mxGeometry x="620" y="190" width="150" height="90" as="geometry" />
        </mxCell>
        <mxCell id="djS_rhRK-3LacVfo9kvr-13" style="edgeStyle=orthogonalEdgeStyle;rounded=0;orthogonalLoop=1;jettySize=auto;html=1;exitX=1;exitY=0.5;exitDx=0;exitDy=0;" edge="1" parent="1" source="djS_rhRK-3LacVfo9kvr-10" target="djS_rhRK-3LacVfo9kvr-9">
          <mxGeometry relative="1" as="geometry" />
        </mxCell>
        <mxCell id="djS_rhRK-3LacVfo9kvr-10" value="Livro" style="html=1;whiteSpace=wrap;" vertex="1" parent="1">
          <mxGeometry x="470" y="210" width="110" height="50" as="geometry" />
        </mxCell>
        <mxCell id="djS_rhRK-3LacVfo9kvr-12" style="edgeStyle=orthogonalEdgeStyle;rounded=0;orthogonalLoop=1;jettySize=auto;html=1;entryX=0;entryY=0.5;entryDx=0;entryDy=0;" edge="1" parent="1" source="djS_rhRK-3LacVfo9kvr-11" target="djS_rhRK-3LacVfo9kvr-10">
          <mxGeometry relative="1" as="geometry" />
        </mxCell>
        <mxCell id="djS_rhRK-3LacVfo9kvr-11" value="Registrar" style="html=1;whiteSpace=wrap;" vertex="1" parent="1">
          <mxGeometry x="290" y="210" width="110" height="50" as="geometry" />
        </mxCell>
        <mxCell id="djS_rhRK-3LacVfo9kvr-24" value="" style="edgeStyle=orthogonalEdgeStyle;rounded=0;orthogonalLoop=1;jettySize=auto;html=1;" edge="1" parent="1" source="djS_rhRK-3LacVfo9kvr-14" target="djS_rhRK-3LacVfo9kvr-23">
          <mxGeometry relative="1" as="geometry" />
        </mxCell>
        <mxCell id="djS_rhRK-3LacVfo9kvr-14" value="Empréstimo" style="whiteSpace=wrap;html=1;" vertex="1" parent="1">
          <mxGeometry x="635" y="375" width="120" height="45" as="geometry" />
        </mxCell>
        <mxCell id="djS_rhRK-3LacVfo9kvr-21" style="edgeStyle=orthogonalEdgeStyle;rounded=0;orthogonalLoop=1;jettySize=auto;html=1;entryX=0.5;entryY=0;entryDx=0;entryDy=0;" edge="1" parent="1" source="djS_rhRK-3LacVfo9kvr-18" target="djS_rhRK-3LacVfo9kvr-10">
          <mxGeometry relative="1" as="geometry" />
        </mxCell>
        <mxCell id="djS_rhRK-3LacVfo9kvr-22" style="edgeStyle=orthogonalEdgeStyle;rounded=0;orthogonalLoop=1;jettySize=auto;html=1;entryX=1;entryY=0.5;entryDx=0;entryDy=0;" edge="1" parent="1" source="djS_rhRK-3LacVfo9kvr-18" target="djS_rhRK-3LacVfo9kvr-1">
          <mxGeometry relative="1" as="geometry">
            <Array as="points">
              <mxPoint x="810" y="65" />
              <mxPoint x="810" y="575" />
            </Array>
          </mxGeometry>
        </mxCell>
        <mxCell id="djS_rhRK-3LacVfo9kvr-18" value="Escolher outro livro?" style="html=1;whiteSpace=wrap;aspect=fixed;shape=isoRectangle;" vertex="1" parent="1">
          <mxGeometry x="620" y="20" width="150" height="90" as="geometry" />
        </mxCell>
        <mxCell id="djS_rhRK-3LacVfo9kvr-25" style="edgeStyle=orthogonalEdgeStyle;rounded=0;orthogonalLoop=1;jettySize=auto;html=1;entryX=0.5;entryY=0;entryDx=0;entryDy=0;" edge="1" parent="1" source="djS_rhRK-3LacVfo9kvr-23" target="djS_rhRK-3LacVfo9kvr-1">
          <mxGeometry relative="1" as="geometry" />
        </mxCell>
        <mxCell id="djS_rhRK-3LacVfo9kvr-23" value="Registrar Histórico" style="whiteSpace=wrap;html=1;" vertex="1" parent="1">
          <mxGeometry x="435" y="375" width="120" height="45" as="geometry" />
        </mxCell>
        <mxCell id="djS_rhRK-3LacVfo9kvr-26" value="Não" style="text;html=1;align=center;verticalAlign=middle;resizable=0;points=[];autosize=1;strokeColor=none;fillColor=none;" vertex="1" parent="1">
          <mxGeometry x="645" y="168" width="50" height="30" as="geometry" />
        </mxCell>
        <mxCell id="djS_rhRK-3LacVfo9kvr-27" value="Sim&amp;nbsp;&lt;br&gt;" style="text;html=1;align=center;verticalAlign=middle;resizable=0;points=[];autosize=1;strokeColor=none;fillColor=none;" vertex="1" parent="1">
          <mxGeometry x="645" y="268" width="50" height="30" as="geometry" />
        </mxCell>
      </root>
    </mxGraphModel>
  </diagram>
</mxfile>
